<svg width="1801" height="80" viewBox="0 0 1801 80" fill="none" xmlns="http://www.w3.org/2000/svg">
<g clip-path="url(#clip0_674_43)">
<path d="M1801 9V71H0V9C0 29.43 15.51 46 34.63 46C53.76 46 69.27 29.43 69.27 9C69.27 29.43 84.78 46 103.9 46C123.03 46 138.54 29.43 138.54 9C138.54 29.43 154.05 46 173.17 46C192.29 46 207.81 29.43 207.81 9C207.81 29.43 223.32 46 242.44 46C261.56 46 277.07 29.43 277.07 9C277.07 29.43 292.59 46 311.71 46C330.83 46 346.34 29.43 346.34 9C346.34 29.43 361.85 46 380.98 46C400.1 46 415.61 29.43 415.61 9C415.61 29.43 431.12 46 450.25 46C469.37 46 484.88 29.43 484.88 9C484.88 29.43 500.39 46 519.52 46C538.64 46 554.15 29.43 554.15 9C554.15 29.43 569.66 46 588.79 46C607.91 46 623.42 29.43 623.42 9C623.42 29.43 638.93 46 658.06 46C677.18 46 692.69 29.43 692.69 9C692.69 29.43 708.2 46 727.32 46C746.45 46 761.96 29.43 761.96 9C761.96 29.43 777.47 46 796.59 46C815.72 46 831.23 29.43 831.23 9C831.23 29.43 846.74 46 865.86 46C884.99 46 900.5 29.43 900.5 9C900.5 29.43 916.01 46 935.13 46C954.26 46 969.77 29.43 969.77 9C969.77 29.43 985.28 46 1004.4 46C1023.53 46 1039.04 29.43 1039.04 9C1039.04 29.43 1054.55 46 1073.67 46C1092.8 46 1108.31 29.43 1108.31 9C1108.31 29.43 1123.82 46 1142.94 46C1162.07 46 1177.58 29.43 1177.58 9C1177.58 29.43 1193.09 46 1212.21 46C1231.34 46 1246.85 29.43 1246.85 9C1246.85 29.43 1262.36 46 1281.48 46C1300.6 46 1316.12 29.43 1316.12 9C1316.12 29.43 1331.63 46 1350.75 46C1369.87 46 1385.38 29.43 1385.38 9C1385.38 29.43 1400.9 46 1420.02 46C1439.14 46 1454.65 29.43 1454.65 9C1454.65 29.43 1470.16 46 1489.29 46C1508.41 46 1523.92 29.43 1523.92 9C1523.92 29.43 1539.43 46 1558.56 46C1577.68 46 1593.19 29.43 1593.19 9C1593.19 29.43 1608.7 46 1627.83 46C1646.95 46 1662.46 29.43 1662.46 9C1662.46 29.43 1677.97 46 1697.1 46C1716.22 46 1731.73 29.43 1731.73 9C1731.73 29.43 1747.24 46 1766.37 46C1785.49 46 1801 29.43 1801 9Z" fill="white"/>
<g filter="url(#filter0_d_674_43)">
<path d="M1801 9C1801 29.43 1785.49 46 1766.37 46C1747.24 46 1731.73 29.43 1731.73 9C1731.73 29.43 1716.22 46 1697.1 46C1677.97 46 1662.46 29.43 1662.46 9C1662.46 29.43 1646.95 46 1627.83 46C1608.7 46 1593.19 29.43 1593.19 9C1593.19 29.43 1577.68 46 1558.56 46C1539.43 46 1523.92 29.43 1523.92 9C1523.92 29.43 1508.41 46 1489.29 46C1470.16 46 1454.65 29.43 1454.65 9C1454.65 29.43 1439.14 46 1420.02 46C1400.9 46 1385.38 29.43 1385.38 9C1385.38 29.43 1369.87 46 1350.75 46C1331.63 46 1316.12 29.43 1316.12 9C1316.12 29.43 1300.6 46 1281.48 46C1262.36 46 1246.85 29.43 1246.85 9C1246.85 29.43 1231.34 46 1212.21 46C1193.09 46 1177.58 29.43 1177.58 9C1177.58 29.43 1162.07 46 1142.94 46C1123.82 46 1108.31 29.43 1108.31 9C1108.31 29.43 1092.8 46 1073.67 46C1054.55 46 1039.04 29.43 1039.04 9C1039.04 29.43 1023.53 46 1004.4 46C985.28 46 969.769 29.43 969.769 9C969.769 29.43 954.259 46 935.135 46C916.011 46 900.5 29.43 900.5 9C900.5 29.43 884.989 46 865.865 46C846.742 46 831.231 29.43 831.231 9C831.231 29.43 815.72 46 796.596 46C777.472 46 761.962 29.43 761.962 9C761.962 29.43 746.451 46 727.327 46C708.203 46 692.692 29.43 692.692 9C692.692 29.43 677.182 46 658.058 46C638.934 46 623.423 29.43 623.423 9C623.423 29.43 607.912 46 588.788 46C569.665 46 554.154 29.43 554.154 9C554.154 29.43 538.643 46 519.519 46C500.395 46 484.885 29.43 484.885 9C484.885 29.43 469.374 46 450.25 46C431.126 46 415.615 29.43 415.615 9C415.615 29.43 400.105 46 380.981 46C361.857 46 346.346 29.43 346.346 9C346.346 29.43 330.835 46 311.712 46C292.588 46 277.077 29.43 277.077 9C277.077 29.43 261.566 46 242.442 46C223.318 46 207.808 29.43 207.808 9C207.808 29.43 192.297 46 173.173 46C154.049 46 138.538 29.43 138.538 9C138.538 29.43 123.028 46 103.904 46C84.7799 46 69.2692 29.43 69.2692 9C69.2692 29.43 53.7585 46 34.6346 46C15.5107 46 0 29.43 0 9V-726H1797.26V-7.73999C1799.65 -2.71997 1801 2.96997 1801 9Z" fill="#EAE9E9" fill-opacity="0.02" shape-rendering="crispEdges"/>
</g>
</g>
<defs>
<filter id="filter0_d_674_43" x="-4" y="-726" width="1809" height="780" filterUnits="userSpaceOnUse" color-interpolation-filters="sRGB">
<feFlood flood-opacity="0" result="BackgroundImageFix"/>
<feColorMatrix in="SourceAlpha" type="matrix" values="0 0 0 0 0 0 0 0 0 0 0 0 0 0 0 0 0 0 127 0" result="hardAlpha"/>
<feOffset dy="4"/>
<feGaussianBlur stdDeviation="2"/>
<feComposite in2="hardAlpha" operator="out"/>
<feColorMatrix type="matrix" values="0 0 0 0 0 0 0 0 0 0 0 0 0 0 0 0 0 0 0.25 0"/>
<feBlend mode="normal" in2="BackgroundImageFix" result="effect1_dropShadow_674_43"/>
<feBlend mode="normal" in="SourceGraphic" in2="effect1_dropShadow_674_43" result="shape"/>
</filter>
<clipPath id="clip0_674_43">
<rect width="1801" height="80" fill="white"/>
</clipPath>
</defs>
</svg>
